<?xml version="1.0" encoding="utf-8"?>
<!-- Generator: Adobe Illustrator 23.0.3, SVG Export Plug-In . SVG Version: 6.00 Build 0)  -->
<svg version="1.1" id="Layer_1" xmlns="http://www.w3.org/2000/svg" xmlns:xlink="http://www.w3.org/1999/xlink" x="0px" y="0px"
	 viewBox="0 0 612 699.35" style="enable-background:new 0 0 612 699.35;" xml:space="preserve">
<g>
	<path d="M473.58,399.49c-0.61-18.06,13.26-29.17,14.32-41.03c0.22-2.46-0.6-4.91-2.14-6.84c-5.34-6.72-13.7-11.3-25.84-13.17
		c-2.34-0.36-3.81-2.73-3.1-5l10.92-34.82c0.38-1.21,1.32-2.15,2.53-2.54c53.92-17.15,105.78-35.44,122.61-73.05
		c3.19-8.16,4.58-18.22,3.8-30.56c-0.12-1.88-0.56-3.73-1.36-5.44c-4.38-9.38-11.58-18.09-23.26-25.74
		c-23.84-14.44-61.28-22.07-107.48-25.3c-1.62-0.11-3.01-1.22-3.47-2.78l-25.85-87.76c-0.46-1.57-1.31-3-2.45-4.18
		c-23.21-24.1-68.54-33.84-129.25-33.6c-60.71-0.24-106.04,9.5-129.25,33.6c-1.14,1.18-1.98,2.61-2.45,4.18l-25.85,87.76
		c-0.46,1.56-1.85,2.66-3.47,2.78c-46.2,3.23-83.64,10.86-107.48,25.3c-11.69,7.65-18.88,16.36-23.26,25.74
		c-0.8,1.7-1.24,3.55-1.35,5.43c-0.78,12.34,0.61,22.4,3.8,30.56c16.83,37.61,68.69,55.9,122.61,73.05
		c1.21,0.38,2.15,1.33,2.53,2.54l10.92,34.82c0.71,2.26-0.76,4.63-3.1,5c-12.14,1.87-20.5,6.45-25.84,13.17
		c-1.54,1.93-2.36,4.38-2.14,6.84c1.06,11.86,14.93,22.97,14.32,41.03c-0.05,1.4-0.88,2.64-2.13,3.26
		c-40.05,19.64-84.31,44.99-93.49,67.58c-9.33,22.97-27.28,211.81-27.28,211.81h287.27h11.26l287.27,0
		c0,0-17.95-188.84-27.28-211.81c-9.18-22.6-53.44-47.94-93.49-67.58C474.46,402.13,473.63,400.89,473.58,399.49z M272.97,276.23
		c-25.46,6.18-45.76,4.27-61.66-4.52c-0.15-0.08-0.3-0.18-0.44-0.27c-19.04-13.33-29.89-27.63-30.42-43.17
		c-0.48-3.73,62.84,23.91,92.52,40.54C275.07,270.11,275.7,275.63,272.97,276.23z M398.22,271.44c-0.14,0.1-0.29,0.19-0.44,0.27
		c-15.91,8.79-36.2,10.69-61.66,4.52c-2.74-0.61-2.11-6.12,0-7.43c29.68-16.63,93.01-44.27,92.52-40.54
		C428.11,243.81,417.26,258.11,398.22,271.44z"/>
	<path d="M301.22,7.71c0.8-0.01,1.56,0.01,2.36,0.01c0.79,0,1.56-0.01,2.36-0.01H301.22z"/>
</g>
</svg>
